HIERARCHY
ROOT Hips
{
  OFFSET -4.35178 90.3298 111.633
  CHANNELS 6 Xposition Yposition Zposition Zrotation Xrotation Yrotation
  JOINT LeftUpLeg
  {
    OFFSET 0.103456 1.85784 10.5485
    CHANNELS 6 Xposition Yposition Zposition Zrotation Xrotation Yrotation
    JOINT LeftLeg
    {
      OFFSET 43.5 -4.2e-05 0
      CHANNELS 6 Xposition Yposition Zposition Zrotation Xrotation Yrotation
      JOINT LeftFoot
      {
        OFFSET 42.3722 1.9e-05 0
        CHANNELS 6 Xposition Yposition Zposition Zrotation Xrotation Yrotation
        JOINT LeftToe
        {
          OFFSET 17.3 0 0
          CHANNELS 6 Xposition Yposition Zposition Zrotation Xrotation Yrotation
          End Site
          {
            OFFSET 0 0 0
          }
        }
      }
    }
  }
  JOINT RightUpLeg
  {
    OFFSET 0.103456 1.85782 -10.5485
    CHANNELS 6 Xposition Yposition Zposition Zrotation Xrotation Yrotation
    JOINT RightLeg
    {
      OFFSET 43.5 -2.7e-05 0
      CHANNELS 6 Xposition Yposition Zposition Zrotation Xrotation Yrotation
      JOINT RightFoot
      {
        OFFSET 42.3723 0 0
        CHANNELS 6 Xposition Yposition Zposition Zrotation Xrotation Yrotation
        JOINT RightToe
        {
          OFFSET 17.3 0 1.7e-05
          CHANNELS 6 Xposition Yposition Zposition Zrotation Xrotation Yrotation
          End Site
          {
            OFFSET 0 0 0
          }
        }
      }
    }
  }
  JOINT Spine
  {
    OFFSET 6.90197 -2.60373 0
    CHANNELS 6 Xposition Yposition Zposition Zrotation Xrotation Yrotation
    JOINT Spine1
    {
      OFFSET 12.5881 0 0
      CHANNELS 6 Xposition Yposition Zposition Zrotation Xrotation Yrotation
      JOINT Spine2
      {
        OFFSET 12.3432 -1.8e-05 0
        CHANNELS 6 Xposition Yposition Zposition Zrotation Xrotation Yrotation
        JOINT Neck
        {
          OFFSET 25.8329 2.3e-05 0
          CHANNELS 6 Xposition Yposition Zposition Zrotation Xrotation Yrotation
          JOINT Head
          {
            OFFSET 11.7666 0 0
            CHANNELS 6 Xposition Yposition Zposition Zrotation Xrotation Yrotation
            End Site
            {
              OFFSET 0 0 0
            }
          }
        }
        JOINT LeftShoulder
        {
          OFFSET 19.7459 -1.48035 6.0001
          CHANNELS 6 Xposition Yposition Zposition Zrotation Xrotation Yrotation
          JOINT LeftArm
          {
            OFFSET 11.2841 1.8e-05 -2e-05
            CHANNELS 6 Xposition Yposition Zposition Zrotation Xrotation Yrotation
            JOINT LeftForeArm
            {
              OFFSET 33 -1.3e-05 1.9e-05
              CHANNELS 6 Xposition Yposition Zposition Zrotation Xrotation Yrotation
              JOINT LeftHand
              {
                OFFSET 25.2 3.2e-05 1.1e-05
                CHANNELS 6 Xposition Yposition Zposition Zrotation Xrotation Yrotation
                End Site
                {
                  OFFSET 0 0 0
                }
              }
            }
          }
        }
        JOINT RightShoulder
        {
          OFFSET 19.7461 -1.48036 -6.00008
          CHANNELS 6 Xposition Yposition Zposition Zrotation Xrotation Yrotation
          JOINT RightArm
          {
            OFFSET 11.2841 0 0
            CHANNELS 6 Xposition Yposition Zposition Zrotation Xrotation Yrotation
            JOINT RightForeArm
            {
              OFFSET 33.0001 1.6e-05 0
              CHANNELS 6 Xposition Yposition Zposition Zrotation Xrotation Yrotation
              JOINT RightHand
              {
                OFFSET 25.1998 0.000123 0.000432
                CHANNELS 6 Xposition Yposition Zposition Zrotation Xrotation Yrotation
                End Site
                {
                  OFFSET 0 0 0
                }
              }
            }
          }
        }
      }
    }
  }
}
MOTION
Frames:	5
Frame Time:	0.0333333
-16.2709 91.8477 0.451029 21.3186 85.0648 71.5818 0.103456 1.85784 10.5485 4.40967 12.774 -177.506 43.5 -4.2e-05 1e-05 -16.7517 -7.61235 -2.62809 42.3722 1.9e-05 0 74.9586 2.47846 -1.90498 17.3 8.88178e-16 3e-06 21.4546 -1e-06 0.003093 0.103456 1.85782 -10.5485 9.52651 -1.1495 174.104 43.5 -2.7e-05 4e-06 -6.21644 12.2054 2.7488 42.3723 -8.88178e-16 1e-05 81.3426 13.9982 -12.1106 17.3 -6e-06 1.7e-05 21.4546 -1.9e-05 -0.003116 6.90197 -2.60373 -3e-06 6.91298 -0.0536101 0.187278 12.5881 1e-05 8e-06 3.81175 -0.0312294 0.403522 12.3432 -1.8e-05 -5e-06 3.49207 0.0487843 0.41398 25.8329 2.3e-05 7e-06 5.66091 -3.08447 -3.76107 11.7666 -8e-06 -6e-06 -17.8976 -8.9473 8.93723 19.7459 -1.48035 6.0001 173.417 -11.9889 -102.406 11.2841 1.8e-05 -2e-05 1.93241 -27.2784 31.0233 33 -1.3e-05 1.9e-05 -19.5695 10.5796 -16.5337 25.2 3.2e-05 1.1e-05 -0.850014 31.0653 3.16233 19.7461 -1.48036 -6.00008 -179.501 0.741721 81.4826 11.2841 0 -1e-06 8.38303 -3.5897 3.63983 33.0001 1.6e-05 -1e-06 -28.8105 6.55853 18.6848 25.1998 0.000123 0.000432 18.7068 -13.5642 5.46068 
-16.4442 91.8371 0.64608 18.8953 85.139 73.9557 0.103456 1.85784 10.5485 4.07128 12.5841 -177.251 43.5 -4.2e-05 1e-05 -17.6083 -7.61193 -2.69581 42.3722 1.9e-05 0 75.4104 2.37209 -1.78532 17.3 -4.44089e-16 3e-06 21.4546 -1e-06 0.003093 0.103456 1.85782 -10.5485 9.38594 -1.25901 174.29 43.5 -2.7e-05 4e-06 -6.87442 12.2767 2.71105 42.3723 -1.33227e-15 1e-05 81.9126 14.1456 -12.0074 17.3 -6e-06 1.7e-05 21.4546 -1.9e-05 -0.003116 6.90197 -2.60373 -3e-06 6.95436 -0.0473737 0.186102 12.5881 1e-05 8e-06 3.89421 -0.0178928 0.40044 12.3432 -1.8e-05 -5e-06 3.57433 0.0631564 0.41023 25.8329 2.3e-05 7e-06 5.58299 -2.97059 -3.82835 11.7666 -8e-06 -6e-06 -17.2786 -8.69049 8.87754 19.7459 -1.48035 6.0001 173.486 -11.9561 -102.188 11.2841 1.8e-05 -2e-05 2.111 -27.1939 30.9937 33 -1.3e-05 1.9e-05 -21.0042 10.461 -16.3708 25.2 3.2e-05 1.1e-05 -1.10609 31.0195 3.13528 19.7461 -1.48036 -6.00008 -179.542 0.793195 81.3417 11.2841 3.55271e-15 -1e-06 8.57331 -3.4548 3.54762 33.0001 1.6e-05 -1e-06 -29.3695 6.46982 18.8474 25.1998 0.000123 0.000432 18.4812 -13.5612 5.59644 
-16.6415 91.7622 0.901008 15.2721 85.1942 77.5433 0.103456 1.85784 10.5485 3.57397 12.3539 -176.989 43.5 -4.2e-05 1e-05 -18.8678 -7.61162 -2.74608 42.3722 1.9e-05 -8.88178e-16 75.8875 2.33758 -1.52662 17.3 2.22045e-15 3e-06 21.4546 -1e-06 0.003093 0.103456 1.85782 -10.5485 9.34998 -1.27069 174.502 43.5 -2.7e-05 4e-06 -7.51319 12.3992 2.65428 42.3723 -4.44089e-16 1e-05 82.53 14.3463 -12.0494 17.3 -6e-06 1.7e-05 21.4546 -1.9e-05 -0.003116 6.90197 -2.60373 -3e-06 7.01428 -0.0336162 0.174009 12.5881 1e-05 8e-06 4.01377 0.00948933 0.374636 12.3432 -1.8e-05 -5e-06 3.69358 0.0906754 0.383011 25.8329 2.3e-05 7e-06 5.45403 -2.66069 -3.99853 11.7666 -8e-06 -6e-06 -16.4016 -8.18894 8.90234 19.7459 -1.48035 6.0001 173.646 -11.8584 -101.873 11.2841 1.8e-05 -2e-05 2.33174 -27.0042 31.021 33 -1.3e-05 1.9e-05 -23.0619 10.3205 -16.0842 25.2 3.2e-05 1.1e-05 -1.57741 30.9061 3.19246 19.7461 -1.48036 -6.00008 -179.626 0.892239 81.1474 11.2841 0 -1e-06 8.86565 -3.12264 3.27649 33.0001 1.6e-05 -1e-06 -30.4094 6.31869 19.1422 25.1998 0.000123 0.000432 18.1526 -13.548 5.79597 
-16.8658 91.6852 1.20087 11.7516 85.2076 81.0063 0.103456 1.85784 10.5485 2.95268 12.0097 -176.685 43.5 -4.2e-05 1e-05 -20.4354 -7.60803 -2.7942 42.3722 1.9e-05 -4.44089e-16 76.3013 2.25979 -1.12391 17.3 -1.77636e-15 3e-06 21.4546 -1e-06 0.003093 0.103456 1.85782 -10.5485 9.28075 -1.38526 174.749 43.5 -2.7e-05 4e-06 -8.2647 12.4942 2.6051 42.3723 3.10862e-15 1e-05 83.0495 14.4281 -12.0278 17.3 -6e-06 1.7e-05 21.4546 -1.9e-05 -0.003116 6.90197 -2.60373 -3e-06 7.08312 -0.00391683 0.156743 12.5881 1e-05 8e-06 4.15079 0.0681953 0.336346 12.3432 -1.8e-05 -5e-06 3.82988 0.148975 0.341403 25.8329 2.3e-05 7e-06 5.27854 -2.14326 -4.29139 11.7666 -8e-06 -6e-06 -15.1638 -7.41102 9.01137 19.7459 -1.48035 6.0001 173.911 -11.6821 -101.446 11.2841 1.8e-05 -2e-05 2.55392 -26.658 31.1089 33 -1.3e-05 1.9e-05 -25.6889 9.99927 -15.6246 25.2 3.2e-05 1.1e-05 -2.18657 30.6761 3.29654 19.7461 -1.48036 -6.00008 -179.732 1.05459 80.897 11.2841 0 -1e-06 9.08972 -2.68485 2.79482 33.0001 1.6e-05 -1e-06 -31.9083 5.99722 19.5583 25.1998 0.000123 0.000432 17.6372 -13.5754 6.09084 
-17.1086 91.5972 1.55739 8.78664 85.1921 83.9018 0.103456 1.85784 10.5485 2.19181 11.5142 -176.374 43.5 -4.2e-05 1e-05 -22.3091 -7.6035 -2.83527 42.3722 1.9e-05 4.44089e-16 76.5685 2.18414 -0.522888 17.3 -4.44089e-16 3e-06 21.4546 -1e-06 0.003093 0.103456 1.85782 -10.5485 9.26849 -1.54926 175.006 43.5 -2.7e-05 4e-06 -8.9537 12.563 2.56832 42.3723 8.88178e-16 1e-05 83.5085 14.467 -11.9481 17.3 -6e-06 1.7e-05 21.4546 -1.9e-05 -0.003116 6.90197 -2.60373 -3e-06 7.16794 0.0563928 0.124427 12.5881 1e-05 8e-06 4.31918 0.186229 0.263704 12.3432 -1.8e-05 -5e-06 3.9968 0.264814 0.261906 25.8329 2.3e-05 7e-06 5.06072 -1.50938 -4.66408 11.7666 -8e-06 -6e-06 -13.7386 -6.4769 9.13529 19.7459 -1.48035 6.0001 174.222 -11.4655 -100.941 11.2841 1.8e-05 -2e-05 2.89039 -26.2814 31.4457 33 -1.3e-05 1.9e-05 -28.9679 9.62459 -15.0116 25.2 3.2e-05 1.1e-05 -2.94604 30.3941 3.4437 19.7461 -1.48036 -6.00008 -179.809 1.26128 80.6072 11.2841 -7.10543e-15 -1e-06 9.34438 -1.93192 1.79775 33.0001 1.6e-05 -1e-06 -34.2513 5.50848 20.1414 25.1998 0.000123 0.000432 16.9237 -13.5933 6.49221 
